<svg width="223" height="27" viewBox="0 0 223 27" fill="none" xmlns="http://www.w3.org/2000/svg">
<path d="M1.14453 24C0.50651 24 0.1875 23.6582 0.1875 22.9746V5.41992C0.1875 4.73633 0.50651 4.39453 1.14453 4.39453H11.959C12.6426 4.39453 12.9844 4.69076 12.9844 5.2832V6.89648C12.9844 7.48893 12.6426 7.78516 11.959 7.78516H4.17969V12.543H10.8379C11.5215 12.543 11.8633 12.8392 11.8633 13.4316V15.0449C11.8633 15.6374 11.5215 15.9336 10.8379 15.9336H4.17969V22.9746C4.17969 23.6582 3.86068 24 3.22266 24H1.14453ZM16.2656 15.8379V5.14648C16.2656 4.64518 16.5846 4.39453 17.2227 4.39453H19.3008C19.9388 4.39453 20.2578 4.64518 20.2578 5.14648V15.7012C20.2578 18.1621 20.6178 19.7025 21.3379 20.3223C22.0671 20.9329 22.8874 21.2383 23.7988 21.2383C24.7103 21.2383 25.526 20.9329 26.2461 20.3223C26.9753 19.7025 27.3398 18.1621 27.3398 15.7012V5.14648C27.3398 4.64518 27.6589 4.39453 28.2969 4.39453H30.375C31.013 4.39453 31.332 4.64518 31.332 5.14648V15.8379C31.332 19.028 30.6576 21.2656 29.3086 22.5508C27.9596 23.8268 26.123 24.4648 23.7988 24.4648C21.4746 24.4648 19.638 23.8268 18.2891 22.5508C16.9401 21.2656 16.2656 19.028 16.2656 15.8379ZM36.6641 24C36.026 24 35.707 23.6582 35.707 22.9746V5.41992C35.707 4.73633 36.026 4.39453 36.6641 4.39453H42.9941C45.8105 4.39453 47.8659 4.83203 49.1602 5.70703C50.4544 6.57292 51.1016 7.98568 51.1016 9.94531C51.1016 11.4036 50.5775 12.5658 49.5293 13.4316C48.4811 14.2975 47.1504 14.8717 45.5371 15.1543V15.1816C46.4121 15.5098 47.0729 15.9655 47.5195 16.5488C47.9661 17.1322 48.3307 17.6426 48.6133 18.0801L51.6211 22.8242C52.1224 23.6081 51.9492 24 51.1016 24H48.7227C48.2214 24 47.8112 23.7311 47.4922 23.1934L44.7305 18.5859C44.4297 18.0938 43.8783 17.556 43.0762 16.9727C42.2832 16.3802 41.4948 16.084 40.7109 16.084H39.6992V22.9746C39.6992 23.6582 39.3802 24 38.7422 24H36.6641ZM39.6992 12.6934H42.1465C43.9694 12.6934 45.2637 12.4883 46.0293 12.0781C46.804 11.6589 47.1914 10.998 47.1914 10.0957C47.1914 9.11133 46.8177 8.47331 46.0703 8.18164C45.332 7.88086 44.2428 7.73047 42.8027 7.73047H39.6992V12.6934ZM56.1875 24C55.5495 24 55.2305 23.6582 55.2305 22.9746V5.41992C55.2305 4.73633 55.5495 4.39453 56.1875 4.39453H62.5176C65.334 4.39453 67.3893 4.83203 68.6836 5.70703C69.9779 6.57292 70.625 7.98568 70.625 9.94531C70.625 11.4036 70.1009 12.5658 69.0527 13.4316C68.0046 14.2975 66.6738 14.8717 65.0605 15.1543V15.1816C65.9355 15.5098 66.5964 15.9655 67.043 16.5488C67.4896 17.1322 67.8542 17.6426 68.1367 18.0801L71.1445 22.8242C71.6458 23.6081 71.4727 24 70.625 24H68.2461C67.7448 24 67.3346 23.7311 67.0156 23.1934L64.2539 18.5859C63.9531 18.0938 63.4017 17.556 62.5996 16.9727C61.8066 16.3802 61.0182 16.084 60.2344 16.084H59.2227V22.9746C59.2227 23.6582 58.9036 24 58.2656 24H56.1875ZM59.2227 12.6934H61.6699C63.4928 12.6934 64.7871 12.4883 65.5527 12.0781C66.3275 11.6589 66.7148 10.998 66.7148 10.0957C66.7148 9.11133 66.3411 8.47331 65.5938 8.18164C64.8555 7.88086 63.7663 7.73047 62.3262 7.73047H59.2227V12.6934ZM74.7539 15.8379V5.14648C74.7539 4.64518 75.0729 4.39453 75.7109 4.39453H77.7891C78.4271 4.39453 78.7461 4.64518 78.7461 5.14648V15.7012C78.7461 18.1621 79.1061 19.7025 79.8262 20.3223C80.5553 20.9329 81.3757 21.2383 82.2871 21.2383C83.1986 21.2383 84.0143 20.9329 84.7344 20.3223C85.4635 19.7025 85.8281 18.1621 85.8281 15.7012V5.14648C85.8281 4.64518 86.1471 4.39453 86.7852 4.39453H88.8633C89.5013 4.39453 89.8203 4.64518 89.8203 5.14648V15.8379C89.8203 19.028 89.1458 21.2656 87.7969 22.5508C86.4479 23.8268 84.6113 24.4648 82.2871 24.4648C79.9629 24.4648 78.1263 23.8268 76.7773 22.5508C75.4284 21.2656 74.7539 19.028 74.7539 15.8379ZM95.1523 24C94.5143 24 94.1953 23.6582 94.1953 22.9746V5.41992C94.1953 4.73633 94.5143 4.39453 95.1523 4.39453H101.482C104.299 4.39453 106.354 4.83203 107.648 5.70703C108.943 6.57292 109.59 7.98568 109.59 9.94531C109.59 11.4036 109.066 12.5658 108.018 13.4316C106.969 14.2975 105.639 14.8717 104.025 15.1543V15.1816C104.9 15.5098 105.561 15.9655 106.008 16.5488C106.454 17.1322 106.819 17.6426 107.102 18.0801L110.109 22.8242C110.611 23.6081 110.438 24 109.59 24H107.211C106.71 24 106.299 23.7311 105.98 23.1934L103.219 18.5859C102.918 18.0938 102.367 17.556 101.564 16.9727C100.771 16.3802 99.9831 16.084 99.1992 16.084H98.1875V22.9746C98.1875 23.6582 97.8685 24 97.2305 24H95.1523ZM98.1875 12.6934H100.635C102.458 12.6934 103.752 12.4883 104.518 12.0781C105.292 11.6589 105.68 10.998 105.68 10.0957C105.68 9.11133 105.306 8.47331 104.559 8.18164C103.82 7.88086 102.731 7.73047 101.291 7.73047H98.1875V12.6934ZM113.719 15.8379V5.14648C113.719 4.64518 114.038 4.39453 114.676 4.39453H116.754C117.392 4.39453 117.711 4.64518 117.711 5.14648V15.7012C117.711 18.1621 118.071 19.7025 118.791 20.3223C119.52 20.9329 120.34 21.2383 121.252 21.2383C122.163 21.2383 122.979 20.9329 123.699 20.3223C124.428 19.7025 124.793 18.1621 124.793 15.7012V5.14648C124.793 4.64518 125.112 4.39453 125.75 4.39453H127.828C128.466 4.39453 128.785 4.64518 128.785 5.14648V15.8379C128.785 19.028 128.111 21.2656 126.762 22.5508C125.413 23.8268 123.576 24.4648 121.252 24.4648C118.928 24.4648 117.091 23.8268 115.742 22.5508C114.393 21.2656 113.719 19.028 113.719 15.8379ZM149.348 13.724V16.888H165.812V13.724H149.348ZM155.732 4.036V22.684C155.732 23.16 155.564 23.3 155.06 23.3C154.556 23.3 152.932 23.3 151.364 23.244C151.868 24.112 152.4 25.568 152.54 26.492C154.864 26.492 156.488 26.408 157.58 25.876C158.7 25.344 159.064 24.476 159.064 22.712V4.036H155.732ZM162.9 0.535998C159.484 1.544 153.996 2.244 149.096 2.58C149.46 3.308 149.908 4.568 149.992 5.352C155.004 5.1 160.884 4.456 165.168 3.28L162.9 0.535998ZM162.144 5.632C161.64 7.732 160.632 10.588 159.792 12.38L162.452 13.248C163.376 11.568 164.468 8.908 165.42 6.528L162.144 5.632ZM149.684 6.976C150.608 8.908 151.392 11.54 151.588 13.248L154.556 12.212C154.276 10.504 153.464 7.956 152.428 6.024L149.684 6.976ZM142.32 2.972V6.08H145.512V15.964H142.32V19.072H148.48V2.972H142.32ZM140.668 2.972V21.368H143.608V2.972H140.668ZM180.484 20.22V22.32H190.256V20.22H180.484ZM180.484 23.468V25.736H190.228V23.468H180.484ZM178.944 16.832V26.548H181.996V19.1H188.856V26.548H192.076V16.832H178.944ZM181.24 10.308H189.696V11.484H181.24V10.308ZM181.24 7.312H189.696V8.432H181.24V7.312ZM178.328 5.296V13.472H192.748V5.296H178.328ZM183.872 6.164V12.66H186.644V6.164H183.872ZM182.164 1.964L180.54 4.232H187.204V1.964H182.164ZM181.464 0.227999C180.512 2.188 178.748 4.456 176.2 6.164C176.872 6.584 177.88 7.452 178.356 8.124C181.184 5.968 183.06 3.42 184.488 0.759999L181.464 0.227999ZM179 13.052C178.3 14.34 177.152 15.74 175.836 16.552L177.908 18.4C179.42 17.308 180.54 15.656 181.324 14.144L179 13.052ZM181.94 14.116C182.304 15.012 182.668 16.216 182.78 16.972L185.076 16.16C184.936 15.432 184.544 14.284 184.124 13.416L181.94 14.116ZM185.468 14.2C185.972 15.04 186.504 16.188 186.7 16.916L188.856 15.88C188.632 15.18 188.044 14.116 187.54 13.332L185.468 14.2ZM188.996 14.088C190.06 15.292 191.404 17 191.992 18.064L194.26 16.608C193.644 15.544 192.272 13.948 191.18 12.8L188.996 14.088ZM186.196 1.964V2.468C185.804 3.336 184.964 4.708 184.236 5.52C184.712 5.912 185.496 6.752 185.888 7.312C187.036 6.248 188.352 4.624 189.304 3.196L187.456 1.824L186.896 1.964H186.196ZM170.544 3.112V6.136H173.344V15.992H170.544V18.988H176.2V3.112H170.544ZM168.668 3.112V21.424H171.412V3.112H168.668ZM208.484 20.22V22.32H218.256V20.22H208.484ZM208.484 23.468V25.736H218.228V23.468H208.484ZM206.944 16.832V26.548H209.996V19.1H216.856V26.548H220.076V16.832H206.944ZM209.24 10.308H217.696V11.484H209.24V10.308ZM209.24 7.312H217.696V8.432H209.24V7.312ZM206.328 5.296V13.472H220.748V5.296H206.328ZM211.872 6.164V12.66H214.644V6.164H211.872ZM210.164 1.964L208.54 4.232H215.204V1.964H210.164ZM209.464 0.227999C208.512 2.188 206.748 4.456 204.2 6.164C204.872 6.584 205.88 7.452 206.356 8.124C209.184 5.968 211.06 3.42 212.488 0.759999L209.464 0.227999ZM207 13.052C206.3 14.34 205.152 15.74 203.836 16.552L205.908 18.4C207.42 17.308 208.54 15.656 209.324 14.144L207 13.052ZM209.94 14.116C210.304 15.012 210.668 16.216 210.78 16.972L213.076 16.16C212.936 15.432 212.544 14.284 212.124 13.416L209.94 14.116ZM213.468 14.2C213.972 15.04 214.504 16.188 214.7 16.916L216.856 15.88C216.632 15.18 216.044 14.116 215.54 13.332L213.468 14.2ZM216.996 14.088C218.06 15.292 219.404 17 219.992 18.064L222.26 16.608C221.644 15.544 220.272 13.948 219.18 12.8L216.996 14.088ZM214.196 1.964V2.468C213.804 3.336 212.964 4.708 212.236 5.52C212.712 5.912 213.496 6.752 213.888 7.312C215.036 6.248 216.352 4.624 217.304 3.196L215.456 1.824L214.896 1.964H214.196ZM198.544 3.112V6.136H201.344V15.992H198.544V18.988H204.2V3.112H198.544ZM196.668 3.112V21.424H199.412V3.112H196.668Z" fill="#898581"/>
</svg>
