<svg width="287" height="35" viewBox="0 0 287 35" fill="none" xmlns="http://www.w3.org/2000/svg">
<path d="M2.04297 31C1.22266 31 0.8125 30.5605 0.8125 29.6816V7.11133C0.8125 6.23242 1.22266 5.79297 2.04297 5.79297H15.9473C16.8262 5.79297 17.2656 6.17383 17.2656 6.93555V9.00977C17.2656 9.77148 16.8262 10.1523 15.9473 10.1523H5.94531V16.2695H14.5059C15.3848 16.2695 15.8242 16.6504 15.8242 17.4121V19.4863C15.8242 20.248 15.3848 20.6289 14.5059 20.6289H5.94531V29.6816C5.94531 30.5605 5.53516 31 4.71484 31H2.04297ZM21.4844 20.5059V6.75977C21.4844 6.11523 21.8945 5.79297 22.7148 5.79297H25.3867C26.207 5.79297 26.6172 6.11523 26.6172 6.75977V20.3301C26.6172 23.4941 27.0801 25.4746 28.0059 26.2715C28.9434 27.0566 29.998 27.4492 31.1699 27.4492C32.3418 27.4492 33.3906 27.0566 34.3164 26.2715C35.2539 25.4746 35.7227 23.4941 35.7227 20.3301V6.75977C35.7227 6.11523 36.1328 5.79297 36.9531 5.79297H39.625C40.4453 5.79297 40.8555 6.11523 40.8555 6.75977V20.5059C40.8555 24.6074 39.9883 27.4844 38.2539 29.1367C36.5195 30.7773 34.1582 31.5977 31.1699 31.5977C28.1816 31.5977 25.8203 30.7773 24.0859 29.1367C22.3516 27.4844 21.4844 24.6074 21.4844 20.5059ZM47.7109 31C46.8906 31 46.4805 30.5605 46.4805 29.6816V7.11133C46.4805 6.23242 46.8906 5.79297 47.7109 5.79297H55.8496C59.4707 5.79297 62.1133 6.35547 63.7773 7.48047C65.4414 8.59375 66.2734 10.4102 66.2734 12.9297C66.2734 14.8047 65.5996 16.2988 64.252 17.4121C62.9043 18.5254 61.1934 19.2637 59.1191 19.627V19.6621C60.2441 20.084 61.0938 20.6699 61.668 21.4199C62.2422 22.1699 62.7109 22.8262 63.0742 23.3887L66.9414 29.4883C67.5859 30.4961 67.3633 31 66.2734 31H63.2148C62.5703 31 62.043 30.6543 61.6328 29.9629L58.082 24.0391C57.6953 23.4062 56.9863 22.7148 55.9551 21.9648C54.9355 21.2031 53.9219 20.8223 52.9141 20.8223H51.6133V29.6816C51.6133 30.5605 51.2031 31 50.3828 31H47.7109ZM51.6133 16.4629H54.7598C57.1035 16.4629 58.7676 16.1992 59.752 15.6719C60.748 15.1328 61.2461 14.2832 61.2461 13.123C61.2461 11.8574 60.7656 11.0371 59.8047 10.6621C58.8555 10.2754 57.4551 10.082 55.6035 10.082H51.6133V16.4629ZM72.8125 31C71.9922 31 71.582 30.5605 71.582 29.6816V7.11133C71.582 6.23242 71.9922 5.79297 72.8125 5.79297H80.9512C84.5723 5.79297 87.2148 6.35547 88.8789 7.48047C90.543 8.59375 91.375 10.4102 91.375 12.9297C91.375 14.8047 90.7012 16.2988 89.3535 17.4121C88.0059 18.5254 86.2949 19.2637 84.2207 19.627V19.6621C85.3457 20.084 86.1953 20.6699 86.7695 21.4199C87.3438 22.1699 87.8125 22.8262 88.1758 23.3887L92.043 29.4883C92.6875 30.4961 92.4648 31 91.375 31H88.3164C87.6719 31 87.1445 30.6543 86.7344 29.9629L83.1836 24.0391C82.7969 23.4062 82.0879 22.7148 81.0566 21.9648C80.0371 21.2031 79.0234 20.8223 78.0156 20.8223H76.7148V29.6816C76.7148 30.5605 76.3047 31 75.4844 31H72.8125ZM76.7148 16.4629H79.8613C82.2051 16.4629 83.8691 16.1992 84.8535 15.6719C85.8496 15.1328 86.3477 14.2832 86.3477 13.123C86.3477 11.8574 85.8672 11.0371 84.9062 10.6621C83.957 10.2754 82.5566 10.082 80.7051 10.082H76.7148V16.4629ZM96.6836 20.5059V6.75977C96.6836 6.11523 97.0938 5.79297 97.9141 5.79297H100.586C101.406 5.79297 101.816 6.11523 101.816 6.75977V20.3301C101.816 23.4941 102.279 25.4746 103.205 26.2715C104.143 27.0566 105.197 27.4492 106.369 27.4492C107.541 27.4492 108.59 27.0566 109.516 26.2715C110.453 25.4746 110.922 23.4941 110.922 20.3301V6.75977C110.922 6.11523 111.332 5.79297 112.152 5.79297H114.824C115.645 5.79297 116.055 6.11523 116.055 6.75977V20.5059C116.055 24.6074 115.188 27.4844 113.453 29.1367C111.719 30.7773 109.357 31.5977 106.369 31.5977C103.381 31.5977 101.02 30.7773 99.2852 29.1367C97.5508 27.4844 96.6836 24.6074 96.6836 20.5059ZM122.91 31C122.09 31 121.68 30.5605 121.68 29.6816V7.11133C121.68 6.23242 122.09 5.79297 122.91 5.79297H131.049C134.67 5.79297 137.312 6.35547 138.977 7.48047C140.641 8.59375 141.473 10.4102 141.473 12.9297C141.473 14.8047 140.799 16.2988 139.451 17.4121C138.104 18.5254 136.393 19.2637 134.318 19.627V19.6621C135.443 20.084 136.293 20.6699 136.867 21.4199C137.441 22.1699 137.91 22.8262 138.273 23.3887L142.141 29.4883C142.785 30.4961 142.562 31 141.473 31H138.414C137.77 31 137.242 30.6543 136.832 29.9629L133.281 24.0391C132.895 23.4062 132.186 22.7148 131.154 21.9648C130.135 21.2031 129.121 20.8223 128.113 20.8223H126.812V29.6816C126.812 30.5605 126.402 31 125.582 31H122.91ZM126.812 16.4629H129.959C132.303 16.4629 133.967 16.1992 134.951 15.6719C135.947 15.1328 136.445 14.2832 136.445 13.123C136.445 11.8574 135.965 11.0371 135.004 10.6621C134.055 10.2754 132.654 10.082 130.803 10.082H126.812V16.4629ZM146.781 20.5059V6.75977C146.781 6.11523 147.191 5.79297 148.012 5.79297H150.684C151.504 5.79297 151.914 6.11523 151.914 6.75977V20.3301C151.914 23.4941 152.377 25.4746 153.303 26.2715C154.24 27.0566 155.295 27.4492 156.467 27.4492C157.639 27.4492 158.688 27.0566 159.613 26.2715C160.551 25.4746 161.02 23.4941 161.02 20.3301V6.75977C161.02 6.11523 161.43 5.79297 162.25 5.79297H164.922C165.742 5.79297 166.152 6.11523 166.152 6.75977V20.5059C166.152 24.6074 165.285 27.4844 163.551 29.1367C161.816 30.7773 159.455 31.5977 156.467 31.5977C153.479 31.5977 151.117 30.7773 149.383 29.1367C147.648 27.4844 146.781 24.6074 146.781 20.5059ZM192.59 17.788V21.856H213.758V17.788H192.59ZM200.798 5.332V29.308C200.798 29.92 200.582 30.1 199.934 30.1C199.286 30.1 197.198 30.1 195.182 30.028C195.83 31.144 196.514 33.016 196.694 34.204C199.682 34.204 201.77 34.096 203.174 33.412C204.614 32.728 205.082 31.612 205.082 29.344V5.332H200.798ZM210.014 0.831998C205.622 2.128 198.566 3.028 192.266 3.46C192.734 4.396 193.31 6.016 193.418 7.024C199.862 6.7 207.422 5.872 212.93 4.36L210.014 0.831998ZM209.042 7.384C208.394 10.084 207.098 13.756 206.018 16.06L209.438 17.176C210.626 15.016 212.03 11.596 213.254 8.536L209.042 7.384ZM193.022 9.112C194.21 11.596 195.218 14.98 195.47 17.176L199.286 15.844C198.926 13.648 197.882 10.372 196.55 7.888L193.022 9.112ZM183.554 3.964V7.96H187.658V20.668H183.554V24.664H191.474V3.964H183.554ZM181.43 3.964V27.616H185.21V3.964H181.43ZM232.622 26.14V28.84H245.186V26.14H232.622ZM232.622 30.316V33.232H245.15V30.316H232.622ZM230.642 21.784V34.276H234.566V24.7H243.386V34.276H247.526V21.784H230.642ZM233.594 13.396H244.466V14.908H233.594V13.396ZM233.594 9.544H244.466V10.984H233.594V9.544ZM229.85 6.952V17.464H248.39V6.952H229.85ZM236.978 8.068V16.42H240.542V8.068H236.978ZM234.782 2.668L232.694 5.584H241.262V2.668H234.782ZM233.882 0.435999C232.658 2.956 230.39 5.872 227.114 8.068C227.978 8.608 229.274 9.724 229.886 10.588C233.522 7.816 235.934 4.54 237.77 1.12L233.882 0.435999ZM230.714 16.924C229.814 18.58 228.338 20.38 226.646 21.424L229.31 23.8C231.254 22.396 232.694 20.272 233.702 18.328L230.714 16.924ZM234.494 18.292C234.962 19.444 235.43 20.992 235.574 21.964L238.526 20.92C238.346 19.984 237.842 18.508 237.302 17.392L234.494 18.292ZM239.03 18.4C239.678 19.48 240.362 20.956 240.614 21.892L243.386 20.56C243.098 19.66 242.342 18.292 241.694 17.284L239.03 18.4ZM243.566 18.256C244.934 19.804 246.662 22 247.418 23.368L250.334 21.496C249.542 20.128 247.778 18.076 246.374 16.6L243.566 18.256ZM239.966 2.668V3.316C239.462 4.432 238.382 6.196 237.446 7.24C238.058 7.744 239.066 8.824 239.57 9.544C241.046 8.176 242.738 6.088 243.962 4.252L241.586 2.488L240.866 2.668H239.966ZM219.842 4.144V8.032H223.442V20.704H219.842V24.556H227.114V4.144H219.842ZM217.43 4.144V27.688H220.958V4.144H217.43ZM268.622 26.14V28.84H281.186V26.14H268.622ZM268.622 30.316V33.232H281.15V30.316H268.622ZM266.642 21.784V34.276H270.566V24.7H279.386V34.276H283.526V21.784H266.642ZM269.594 13.396H280.466V14.908H269.594V13.396ZM269.594 9.544H280.466V10.984H269.594V9.544ZM265.85 6.952V17.464H284.39V6.952H265.85ZM272.978 8.068V16.42H276.542V8.068H272.978ZM270.782 2.668L268.694 5.584H277.262V2.668H270.782ZM269.882 0.435999C268.658 2.956 266.39 5.872 263.114 8.068C263.978 8.608 265.274 9.724 265.886 10.588C269.522 7.816 271.934 4.54 273.77 1.12L269.882 0.435999ZM266.714 16.924C265.814 18.58 264.338 20.38 262.646 21.424L265.31 23.8C267.254 22.396 268.694 20.272 269.702 18.328L266.714 16.924ZM270.494 18.292C270.962 19.444 271.43 20.992 271.574 21.964L274.526 20.92C274.346 19.984 273.842 18.508 273.302 17.392L270.494 18.292ZM275.03 18.4C275.678 19.48 276.362 20.956 276.614 21.892L279.386 20.56C279.098 19.66 278.342 18.292 277.694 17.284L275.03 18.4ZM279.566 18.256C280.934 19.804 282.662 22 283.418 23.368L286.334 21.496C285.542 20.128 283.778 18.076 282.374 16.6L279.566 18.256ZM275.966 2.668V3.316C275.462 4.432 274.382 6.196 273.446 7.24C274.058 7.744 275.066 8.824 275.57 9.544C277.046 8.176 278.738 6.088 279.962 4.252L277.586 2.488L276.866 2.668H275.966ZM255.842 4.144V8.032H259.442V20.704H255.842V24.556H263.114V4.144H255.842ZM253.43 4.144V27.688H256.958V4.144H253.43Z" fill="#898581"/>
</svg>
